<svg xmlns="http://www.w3.org/2000/svg" viewBox="185 190 550 610" width="550" height="610">
<g transform="translate(0,1024) scale(0.1,-0.1)" fill="#1a3a5c" stroke="none">
<path d="M5595 8003 c-250 -19 -474 -55 -713 -113 -153 -37 -406 -114 -467
-142 -32 -14 -42 -45 -21 -66 14 -14 26 -13 128 16 248 69 397 99 623 129 198
25 636 25 825 0 466 -63 850 -214 1185 -467 85 -64 246 -220 322 -313 168
-203 313 -506 368 -767 57 -270 61 -596 9 -875 -94 -512 -393 -1092 -787
-1526 -686 -756 -1605 -1245 -2587 -1376 -190 -25 -680 -25 -860 0 -657 93
-1188 380 -1524 825 -31 40 -63 86 -73 103 -29 48 -93 48 -93 0 0 -54 192
-322 338 -473 395 -406 895 -633 1572 -713 179 -22 546 -22 743 0 574 61 1175
257 1697 553 655 370 1220 908 1575 1497 415 691 554 1386 404 2025 -140 601
-537 1095 -1114 1387 -77 39 -187 90 -244 112 -221 89 -524 156 -806 181 -110
9 -403 11 -500 3z"/>
<path d="M6062 7228 c-57 -101 -223 -455 -278 -590 -60 -151 -74 -210 -74
-311 0 -146 46 -254 145 -346 145 -131 376 -182 729 -160 216 14 534 67 555
93 13 16 29 13 -374 62 -657 79 -733 101 -792 231 -40 88 -31 189 60 643 89
444 90 450 79 450 -5 0 -27 -33 -50 -72z"/>
<path d="M4648 7090 c-9 -14 -58 -117 -108 -230 -249 -556 -344 -703 -517
-792 -173 -90 -357 -124 -868 -159 -93 -6 -174 -15 -179 -20 -35 -32 350 -90
604 -91 308 -1 507 50 685 177 166 118 267 283 325 530 37 156 86 516 78 580
l-3 30 -17 -25z"/>
<path d="M5249 6409 c-66 -89 -174 -177 -434 -349 -578 -385 -856 -637 -935
-849 -25 -64 -39 -191 -22 -191 6 0 18 23 27 51 60 179 261 365 862 793 309
220 458 356 521 473 32 60 56 143 42 143 -5 0 -32 -32 -61 -71z"/>
<path d="M5225 6177 c-77 -90 -275 -252 -595 -487 -485 -356 -625 -481 -695
-624 -31 -61 -39 -90 -43 -151 -3 -53 -1 -75 7 -75 6 0 14 8 17 18 3 9 21 49
40 89 45 94 138 188 319 322 686 511 922 718 996 876 28 57 38 106 22 104 -5
0 -35 -33 -68 -72z"/>
<path d="M5235 5982 c-88 -140 -429 -427 -920 -777 -55 -38 -144 -115 -200
-170 -147 -146 -195 -248 -175 -371 11 -66 28 -114 41 -114 5 0 8 29 8 65 -2
96 31 158 145 270 103 102 238 210 469 374 87 62 202 148 255 191 119 95 283
264 340 349 37 56 82 169 82 206 0 30 -17 21 -45 -23z"/>
<path d="M5396 5638 c-13 -132 -71 -204 -315 -396 -75 -58 -176 -139 -224
-180 -147 -124 -238 -254 -252 -362 l-6 -45 28 35 c68 85 166 178 273 258 338
253 446 355 507 479 30 61 37 85 37 136 0 61 -18 137 -33 137 -5 0 -11 -28
-15 -62z"/>
<path d="M5460 5415 c0 -9 -16 -48 -36 -88 -45 -90 -172 -218 -323 -327 -388
-279 -526 -412 -582 -560 -37 -97 -25 -96 79 8 98 99 216 194 437 355 337 245
434 363 443 543 3 58 1 84 -7 84 -6 0 -11 -7 -11 -15z"/>
<path d="M5437 5082 c-75 -122 -148 -186 -597 -532 -144 -110 -279 -236 -350
-325 -55 -69 -110 -177 -110 -215 0 -22 8 -16 65 46 86 95 230 219 400 344
285 210 332 247 423 334 51 50 110 116 132 148 46 70 82 173 78 224 l-3 38
-38 -62z"/>
<path d="M5825 4573 c-380 -45 -607 -165 -759 -400 -119 -184 -206 -492 -257
-910 -21 -172 -21 -209 0 -187 5 5 62 124 126 264 234 508 329 677 443 782
179 165 423 235 1070 307 144 16 237 30 239 37 7 21 -270 80 -482 104 -84 9
-313 11 -380 3z"/>
<path d="M2987 4535 c-210 -23 -387 -57 -387 -75 0 -14 26 -19 225 -35 296
-25 515 -53 583 -74 81 -25 129 -63 155 -119 17 -40 19 -59 13 -142 -3 -52
-15 -142 -25 -200 -60 -328 -101 -567 -101 -582 0 -42 24 -9 89 121 84 167
168 363 212 497 29 87 32 112 33 209 0 136 -21 198 -95 280 -93 100 -209 136
-442 134 -78 -1 -195 -7 -260 -14z"/>
</g>
</svg>
